#!OML:ASF H:\ManfredObstacles\Project 1\Capture day 2\Session 1\male.ASF
:FULLY-SPECIFIED
:DEGREES
233
root 2.25496 10.6244 12.4373 -141.891 -3.91875 177.509
lowerback 37.5938 4.83994 -3.20149
upperback 16.4426 -0.194772 -0.859963
thorax -0.532977 -1.97558 0.837454
lowerneck -36.8883 -2.87111 -1.79319
upperneck 18.139 -4.71704 5.76207
head 12.0724 -1.40739 1.56966
rclavicle 1.40143e-014 3.28492e-014
rhumerus 40.5653 6.6319 -71.9278
rradius 23.8909
rwrist 31.0089
rhand -29.4288 -17.5281
rfingers 7.12502
rthumb -2.76581 -47.4899
lclavicle 1.40143e-014 3.28492e-014
lhumerus 46.2752 -14.913 58.6715
lradius 26.0219
lwrist -36.058
lhand -22.9464 17.608
lfingers 7.12502
lthumb 3.49484 47.5591
rfemur -75.097 3.30627 27.3626
rtibia 125.293
rfoot -6.75061 -13.6397
rtoes -29.473
lfemur -101.01 6.96514 -22.9895
ltibia 132.294
lfoot -9.25644 31.9416
ltoes -7.65179
234
root 2.24259 10.6723 12.3195 -142.198 -3.75233 177.87
lowerback 37.8416 5.48226 -3.42326
upperback 16.8505 0.357644 -0.30179
thorax -0.186975 -1.81649 1.34347
lowerneck -37.3757 -3.06654 -1.95646
upperneck 17.9569 -4.76703 5.32661
head 12.0636 -1.50283 1.41467
rclavicle -5.96354e-016 2.60035e-014
rhumerus 40.8993 7.0082 -70.1436
rradius 23.7513
rwrist 30.0587
rhand -29.2427 -17.8758
rfingers 7.12502
rthumb -2.58608 -47.8398
lclavicle -5.96354e-016 2.60035e-014
lhumerus 46.8286 -14.9003 59.6922
lradius 25.4908
lwrist -36.7565
lhand -23.389 17.643
lfingers 7.12502
lthumb 3.06741 47.6007
rfemur -75.5019 3.56858 27.5097
rtibia 126.082
rfoot -6.13823 -13.6647
rtoes -28.1682
lfemur -102.262 6.18076 -23.5811
ltibia 131.03
lfoot -8.92833 32.1617
ltoes -7.76894
235
root 2.22904 10.7151 12.204 -142.574 -3.60997 178.201
lowerback 38.0244 6.25339 -3.81061
upperback 17.3108 1.00227 0.500034
thorax 0.209323 -1.64997 2.15984
lowerneck -37.7423 -3.30678 -2.27696
upperneck 17.6748 -4.76518 4.78339
head 11.9923 -1.60857 1.25203
rclavicle 1.82882e-014 -4.84538e-016
rhumerus 41.2284 7.47719 -67.8964
rradius 23.7304
rwrist 28.8817
rhand -28.9503 -18.1975
rfingers 7.12502
rthumb -2.30375 -48.1648
lclavicle 1.82882e-014 -4.84538e-016
lhumerus 47.3571 -14.7952 61.1668
lradius 24.9288
lwrist -37.6668
lhand -23.8219 17.6751
lfingers 7.12502
lthumb 2.6494 47.6384
rfemur -75.935 3.71345 27.6697
rtibia 127.001
rfoot -6.20721 -14.3248
rtoes -27.514
lfemur -103.362 5.37789 -24.1465
ltibia 129.663
lfoot -8.57481 32.337
ltoes -7.8601
236
root 2.21491 10.7528 12.0911 -143.024 -3.49923 178.506
lowerback 38.5875 6.88347 -4.1255
upperback 17.3349 1.56131 1.14497
thorax 0.15721 -1.47629 2.80408
lowerneck -37.3474 -3.42747 -2.39965
upperneck 17.3192 -4.70788 4.24418
head 11.7702 -1.68353 1.07451
rclavicle -2.50469e-014 5.59082e-015
rhumerus 40.9844 8.09161 -66.0826
rradius 23.739
rwrist 27.7975
rhand -28.6154 -18.4171
rfingers 7.12502
rthumb -1.98023 -48.3877
lclavicle -2.50469e-014 5.59082e-015
lhumerus 47.3154 -14.9861 62.4617
lradius 24.463
lwrist -38.4323
lhand -24.2172 17.7361
lfingers 7.12502
lthumb 2.2676 47.7038
rfemur -76.3793 3.75305 27.8426
rtibia 128.007
rfoot -6.86474 -15.5051
rtoes -27.4293
lfemur -104.287 4.5979 -24.6685
ltibia 128.205
lfoot -8.25464 32.4158
ltoes -7.90031
237
root 2.20063 10.7852 11.9806 -143.546 -3.42338 178.789
lowerback 39.0041 7.45835 -4.40106
upperback 17.5305 2.03813 1.78316
thorax 0.174417 -1.35334 3.45214
lowerneck -36.992 -3.50219 -2.53796
upperneck 16.9637 -4.59292 3.70922
head 11.5554 -1.73242 0.914711
rclavicle 2.90226e-014 -2.96438e-014
rhumerus 40.8242 8.73931 -64.389
rradius 23.751
rwrist 26.7544
rhand -28.2509 -18.5411
rfingers 7.12502
rthumb -1.62827 -48.5146
lclavicle 2.90226e-014 -2.96438e-014
lhumerus 47.2088 -15.0035 63.8279
lradius 23.9983
lwrist -39.2345
lhand -24.5926 17.7983
lfingers 7.12502
lthumb 1.90508 47.7696
rfemur -76.839 3.69504 28.0232
rtibia 129.058
rfoot -7.96023 -17.0031
rtoes -27.5303
lfemur -105.012 3.87739 -25.1363
ltibia 126.669
lfoot -7.98477 32.3737
ltoes -7.95125
238
root 2.18635 10.8124 11.8726 -144.127 -3.38103 179.055
lowerback 39.4014 7.97374 -4.60838
upperback 17.7586 2.44268 2.38304
thorax 0.232373 -1.26776 4.04707
lowerneck -36.6883 -3.54139 -2.64639
upperneck 16.6407 -4.46012 3.19457
head 11.3635 -1.76616 0.763029
rclavicle -1.07344e-014 -8.32411e-015
rhumerus 40.6856 9.32847 -62.9328
rradius 23.7248
rwrist 25.8437
rhand -27.9222 -18.5646
rfingers 7.12502
rthumb -1.31073 -48.5403
lclavicle -1.07344e-014 -8.32411e-015
lhumerus 47.053 -14.937 65.1838
lradius 23.5369
lwrist -39.9888
lhand -24.9468 17.8599
lfingers 7.12502
lthumb 1.56295 47.834
rfemur -77.3406 3.56138 28.2085
rtibia 130.115
rfoot -9.2929 -18.6242
rtoes -27.6188
lfemur -105.537 3.22986 -25.5537
ltibia 125.073
lfoot -7.74808 32.2051
ltoes -7.98744
239
root 2.1718 10.8339 11.7667 -144.752 -3.3674 179.311
lowerback 39.8342 8.44294 -4.61054
upperback 18.0527 2.82121 2.87979
thorax 0.363544 -1.18713 4.43467
lowerneck -36.7428 -3.58755 -2.61281
upperneck 16.4495 -4.42196 2.71568
head 11.2798 -1.82197 0.582588
rclavicle 3.18055e-015 -7.35503e-015
rhumerus 40.575 9.54841 -61.8651
rradius 23.6066
rwrist 25.1892
rhand -27.669 -18.4985
rfingers 7.12502
rthumb -1.06619 -48.4756
lclavicle 3.18055e-015 -7.35503e-015
lhumerus 47.0995 -14.9824 66.3042
lradius 23.0983
lwrist -40.5867
lhand -25.2404 17.9299
lfingers 7.12502
lthumb 1.27935 47.9058
rfemur -77.9122 3.36985 28.3966
rtibia 131.147
rfoot -10.7453 -20.0464
rtoes -27.1943
lfemur -105.861 2.67061 -25.9228
ltibia 123.445
lfoot -7.58508 31.9246
ltoes -8.05481
240
root 2.15675 10.8492 11.6624 -145.4 -3.37076 179.566
lowerback 40.1656 8.85671 -4.53849
upperback 18.4521 3.11523 3.35565
thorax 0.650985 -1.1604 4.7912
lowerneck -37.0667 -3.62819 -2.65843
upperneck 16.325 -4.36122 2.3224
head 11.2667 -1.85959 0.448733
rclavicle 3.26007e-014 8.94531e-015
rhumerus 40.6394 9.70852 -60.9184
rradius 23.4466
rwrist 24.6613
rhand -27.4477 -18.402
rfingers 7.12502
rthumb -0.852506 -48.38
lclavicle 3.26007e-014 8.94531e-015
lhumerus 47.2177 -14.812 67.4804
lradius 22.6232
lwrist -41.2555
lhand -25.5089 17.9719
lfingers 7.12502
lthumb 1.02002 47.9492
rfemur -78.5827 3.15801 28.5925
rtibia 132.128
rfoot -12.1999 -21.2957
rtoes -26.7458
lfemur -105.996 2.20875 -26.2509
ltibia 121.816
lfoot -7.44144 31.5624
ltoes -8.13557
241
root 2.1412 10.8575 11.5594 -146.061 -3.38497 179.83
lowerback 40.3781 9.19896 -4.43646
upperback 18.9214 3.30206 3.8147
thorax 1.06226 -1.19729 5.15338
lowerneck -37.483 -3.65346 -2.84382
upperneck 16.2307 -4.23914 2.04392
head 11.2842 -1.86316 0.390568
rclavicle 3.18055e-015 1.59525e-014
rhumerus 40.8489 9.93694 -60.046
rradius 23.2696
rwrist 24.2657
rhand -27.2449 -18.2884
rfingers 7.12502
rthumb -0.656645 -48.2671
lclavicle 3.18055e-015 1.59525e-014
lhumerus 47.3109 -14.3908 68.7255
lradius 22.1129
lwrist -41.9768
lhand -25.7541 17.9932
lfingers 7.12502
lthumb 0.783236 47.9715
rfemur -79.3856 2.96195 28.8122
rtibia 133.043
rfoot -13.5742 -22.3704
rtoes -26.2593
lfemur -105.953 1.85393 -26.5399
ltibia 120.215
lfoot -7.29857 31.1239
ltoes -8.25577
242
root 2.1249 10.8572 11.4579 -146.726 -3.41045 180.106
lowerback 40.5229 9.52489 -4.32634
upperback 19.388 3.47274 4.28844
thorax 1.48968 -1.24433 5.53535
lowerneck -37.8628 -3.68105 -3.06536
upperneck 16.1515 -4.10983 1.79956
head 11.3036 -1.86155 0.352288
rclavicle -2.06736e-014 -7.95139e-016
rhumerus 41.03 10.1799 -59.1834
rradius 23.1005
rwrist 23.9474
rhand -27.0433 -18.167
rfingers 7.12502
rthumb -0.461907 -48.1462
lclavicle -2.06736e-014 -7.95139e-016
lhumerus 47.3379 -13.9264 70.0542
lradius 21.585
lwrist -42.7431
lhand -25.9831 18.0054
lfingers 7.12502
lthumb 0.562033 47.9844
rfemur -80.3262 2.80291 29.0613
rtibia 133.887
rfoot -14.9129 -23.2359
rtoes -25.8348
lfemur -105.741 1.59668 -26.7758
ltibia 118.675
lfoot -7.14091 30.5966
ltoes -8.35815
